<svg style="margin-right: 0.6em;" xmlns="http://www.w3.org/2000/svg" viewBox="0 0 52.17 52.17">
    <path class="cls-1"
        d="M26.08,4A22.09,22.09,0,1,1,4,26.08,22.11,22.11,0,0,1,26.08,4m0-4A26.09,26.09,0,1,0,52.17,26.08,26.08,26.08,0,0,0,26.08,0Z" />
    <path class="cls-1"
        d="M26.08,12.15A13.63,13.63,0,1,1,12.46,25.78,13.64,13.64,0,0,1,26.08,12.15m0-4A17.63,17.63,0,1,0,43.71,25.78,17.62,17.62,0,0,0,26.08,8.15Z" />
    <path class="cls-1" d="M26.08,21.09a5,5,0,1,1-4.95,5,5,5,0,0,1,4.95-5m0-4a9,9,0,1,0,9,9,9,9,0,0,0-9-9Z" />
</svg>